<svg width="45" height="42" viewBox="0 0 45 42" fill="none" xmlns="http://www.w3.org/2000/svg">
<path d="M13.4561 34.5374C12.4413 34.5552 11.6053 33.8086 11.5889 32.8699L11.1736 9.07539C11.1572 8.1367 11.9666 7.36142 12.9815 7.34371C13.9963 7.32599 14.8323 8.07255 14.8487 9.01124L15.264 32.8058C15.2804 33.7444 14.471 34.5197 13.4561 34.5374ZM22.5252 27.5786C21.5103 27.5964 20.6744 26.8498 20.658 25.9111L20.3613 8.91502C20.3449 7.97632 21.1543 7.20105 22.1692 7.18333C23.1841 7.16562 24.02 7.91217 24.0364 8.85087L24.3331 25.847C24.3495 26.7856 23.5401 27.5609 22.5252 27.5786ZM31.5646 18.9202C30.5497 18.9379 29.7138 18.1914 29.6974 17.2527L29.5491 8.75464C29.5327 7.81595 30.3421 7.04068 31.357 7.02296C32.3718 7.00525 33.2078 7.7518 33.2242 8.6905L33.3725 17.1885C33.3889 18.1272 32.5795 18.9025 31.5646 18.9202Z" fill="#303030"/>
</svg>
