<svg width="94" height="24" viewBox="0 0 94 24" fill="none" xmlns="http://www.w3.org/2000/svg">
<path d="M0.176 23V0.407999H5.2V23H0.176ZM9.103 16.984V12.696H20.431V16.984H9.103ZM27.7243 23V18.584H33.3243C34.6896 18.584 35.8843 18.3173 36.9083 17.784C37.9323 17.2293 38.7216 16.4293 39.2763 15.384C39.8309 14.3387 40.1083 13.1013 40.1083 11.672C40.1083 10.2427 39.8203 9.016 39.2443 7.992C38.6896 6.968 37.9003 6.17867 36.8763 5.624C35.8736 5.06933 34.6896 4.792 33.3243 4.792H27.5643V0.407999H33.3883C35.0949 0.407999 36.6629 0.685333 38.0923 1.24C39.5429 1.77333 40.8016 2.552 41.8683 3.576C42.9563 4.57867 43.7883 5.77333 44.3643 7.16C44.9616 8.52533 45.2603 10.04 45.2603 11.704C45.2603 13.3467 44.9616 14.8613 44.3643 16.248C43.7883 17.6347 42.9669 18.8293 41.9003 19.832C40.8336 20.8347 39.5749 21.6133 38.1243 22.168C36.6949 22.7227 35.1376 23 33.4523 23H27.7243ZM24.3323 23V0.407999H29.3563V23H24.3323ZM84.9585 23.352C83.2732 23.352 81.7052 23.064 80.2545 22.488C78.8252 21.8907 77.5665 21.0587 76.4785 19.992C75.4118 18.9253 74.5798 17.688 73.9825 16.28C73.3852 14.8507 73.0865 13.3147 73.0865 11.672C73.0865 10.0293 73.3852 8.504 73.9825 7.096C74.5798 5.66667 75.4118 4.42933 76.4785 3.384C77.5452 2.33867 78.7932 1.528 80.2225 0.952C81.6732 0.354666 83.2412 0.0559998 84.9265 0.0559998C86.7185 0.0559998 88.3078 0.343999 89.6945 0.919998C91.1025 1.496 92.3292 2.28533 93.3745 3.288L90.0145 6.68C89.4172 6.04 88.6918 5.53867 87.8385 5.176C87.0065 4.81333 86.0358 4.632 84.9265 4.632C83.9452 4.632 83.0385 4.80267 82.2065 5.144C81.3958 5.464 80.6918 5.93333 80.0945 6.552C79.5185 7.17067 79.0598 7.91733 78.7185 8.792C78.3985 9.66667 78.2385 10.6267 78.2385 11.672C78.2385 12.7387 78.3985 13.7093 78.7185 14.584C79.0598 15.4587 79.5185 16.2053 80.0945 16.824C80.6918 17.4427 81.3958 17.9227 82.2065 18.264C83.0385 18.6053 83.9452 18.776 84.9265 18.776C86.0785 18.776 87.0812 18.5947 87.9345 18.232C88.7878 17.8693 89.5238 17.368 90.1425 16.728L93.5345 20.12C92.4465 21.1227 91.1985 21.912 89.7905 22.488C88.4038 23.064 86.7932 23.352 84.9585 23.352Z" fill="white"/>
<path d="M59.2413 23.384C57.5346 23.384 55.9559 23.0853 54.5052 22.488C53.0759 21.8907 51.8173 21.0587 50.7293 19.992C49.6413 18.9253 48.7986 17.688 48.2013 16.28C47.6039 14.8507 47.3053 13.3147 47.3053 11.672C47.3053 10.008 47.6039 8.472 48.2013 7.064C48.7986 5.656 49.6306 4.42933 50.6973 3.384C51.7639 2.31733 53.0119 1.496 54.4413 0.919998C55.8919 0.322665 57.4706 0.0239983 59.1773 0.0239983C60.8626 0.0239983 62.4199 0.322665 63.8493 0.919998C65.2999 1.496 66.5586 2.31733 67.6253 3.384C68.7133 4.42933 69.5559 5.66667 70.1533 7.096C70.7506 8.504 71.0493 10.04 71.0493 11.704C71.0493 13.3467 70.7506 14.8827 70.1533 16.312C69.5559 17.72 68.7239 18.9573 67.6573 20.024C66.5906 21.0693 65.3319 21.8907 63.8813 22.488C62.4519 23.0853 60.9053 23.384 59.2413 23.384ZM59.1773 18.808C60.5213 18.808 61.6946 18.5093 62.6973 17.912C63.7213 17.3147 64.5106 16.4827 65.0653 15.416C65.6199 14.328 65.8973 13.08 65.8973 11.672C65.8973 10.6053 65.7373 9.64533 65.4173 8.792C65.0973 7.91733 64.6386 7.17067 64.0413 6.552C63.4439 5.912 62.7293 5.432 61.8973 5.112C61.0866 4.77067 60.1799 4.6 59.1773 4.6C57.8333 4.6 56.6493 4.89867 55.6253 5.496C54.6226 6.072 53.8439 6.89333 53.2893 7.96C52.7346 9.00533 52.4573 10.2427 52.4573 11.672C52.4573 12.7387 52.6173 13.7093 52.9373 14.584C53.2573 15.4587 53.7053 16.216 54.2812 16.856C54.8786 17.4747 55.5933 17.9547 56.4253 18.296C57.2573 18.6373 58.1746 18.808 59.1773 18.808Z" fill="#9B92FF"/>
</svg>
